REM DIRINDEX 1\2,1\3,1\4,1\5
REM DIRNAME "folder01","folder02","folder03","folder04","folder05"
TITLE ""
FILE "1Q_j_2114-2127.mp3" MP3
  TRACK 01 AUDIO
    TITLE "3:cjc172_0042"
    INDEX 01 00:00:00
  TRACK 02 AUDIO
    TITLE "0:"
    INDEX 01 00:01:18
  TRACK 03 AUDIO
    TITLE "4:cjc172_0043"
    INDEX 01 00:01:29
  TRACK 04 AUDIO
    TITLE "0:"
    INDEX 01 00:03:16
  TRACK 05 AUDIO
    TITLE "5:cjc172_0044"
    INDEX 01 00:03:24
  TRACK 06 AUDIO
    TITLE "0:"
    INDEX 01 00:07:30
  TRACK 07 AUDIO
    TITLE "3:cjc172_0045"
    INDEX 01 00:08:00
  TRACK 08 AUDIO
    TITLE "0:"
    INDEX 01 00:09:15
  TRACK 09 AUDIO
    TITLE "4:cjc172_0046"
    INDEX 01 00:09:31
  TRACK 10 AUDIO
    TITLE "0:"
    INDEX 01 00:12:00
  TRACK 11 AUDIO
    TITLE "5:cjc172_0047"
    INDEX 01 00:12:04
  TRACK 12 AUDIO
    TITLE "0:"
    INDEX 01 00:18:36
  TRACK 13 AUDIO
    TITLE "3:cjc172_0048"
    INDEX 01 00:19:12
  TRACK 14 AUDIO
    TITLE "0:"
    INDEX 01 00:20:54
  TRACK 15 AUDIO
    TITLE "4:cjc172_0049"
    INDEX 01 00:20:64
  TRACK 16 AUDIO
    TITLE "0:"
    INDEX 01 00:22:57
  TRACK 17 AUDIO
    TITLE "5:cjc172_0050"
    INDEX 01 00:22:65
  TRACK 18 AUDIO
    TITLE "0:"
    INDEX 01 00:29:47
  TRACK 19 AUDIO
    TITLE "3:cjc172_0051"
    INDEX 01 00:30:21
  TRACK 20 AUDIO
    TITLE "0:"
    INDEX 01 00:31:32
  TRACK 21 AUDIO
    TITLE "4:cjc172_0052"
    INDEX 01 00:31:42
  TRACK 22 AUDIO
    TITLE "0:"
    INDEX 01 00:33:47
  TRACK 23 AUDIO
    TITLE "5:cjc172_0053"
    INDEX 01 00:33:55
  TRACK 24 AUDIO
    TITLE "0:"
    INDEX 01 00:39:51
  TRACK 25 AUDIO
    TITLE "3:cjc172_0054"
    INDEX 01 00:40:24
  TRACK 26 AUDIO
    TITLE "0:"
    INDEX 01 00:41:39
  TRACK 27 AUDIO
    TITLE "4:cjc172_0055"
    INDEX 01 00:41:48
  TRACK 28 AUDIO
    TITLE "0:"
    INDEX 01 00:43:12
  TRACK 29 AUDIO
    TITLE "5:cjc172_0056"
    INDEX 01 00:43:22
  TRACK 30 AUDIO
    TITLE "0:"
    INDEX 01 00:48:43
  TRACK 31 AUDIO
    TITLE "3:cjc172_0057"
    INDEX 01 00:49:15
  TRACK 32 AUDIO
    TITLE "0:"
    INDEX 01 00:50:32
  TRACK 33 AUDIO
    TITLE "4:cjc172_0058"
    INDEX 01 00:50:42
  TRACK 34 AUDIO
    TITLE "0:"
    INDEX 01 00:51:61
  TRACK 35 AUDIO
    TITLE "5:cjc172_0059"
    INDEX 01 00:51:68
  TRACK 36 AUDIO
    TITLE "0:"
    INDEX 01 00:56:07
  TRACK 37 AUDIO
    TITLE "3:cjc172_0060"
    INDEX 01 00:56:54
  TRACK 38 AUDIO
    TITLE "0:"
    INDEX 01 00:58:00
  TRACK 39 AUDIO
    TITLE "4:cjc172_0061"
    INDEX 01 00:58:08
  TRACK 40 AUDIO
    TITLE "0:"
    INDEX 01 01:00:56
  TRACK 41 AUDIO
    TITLE "5:cjc172_0062"
    INDEX 01 01:00:61
  TRACK 42 AUDIO
    TITLE "0:"
    INDEX 01 01:05:41
  TRACK 43 AUDIO
    TITLE "3:cjc172_0063"
    INDEX 01 01:06:11
  TRACK 44 AUDIO
    TITLE "0:"
    INDEX 01 01:07:16
  TRACK 45 AUDIO
    TITLE "4:cjc172_0064"
    INDEX 01 01:07:38
  TRACK 46 AUDIO
    TITLE "0:"
    INDEX 01 01:09:45
  TRACK 47 AUDIO
    TITLE "5:cjc172_0065"
    INDEX 01 01:09:53
  TRACK 48 AUDIO
    TITLE "0:"
    INDEX 01 01:13:43
  TRACK 49 AUDIO
    TITLE "3:cjc172_0066"
    INDEX 01 01:14:15
  TRACK 50 AUDIO
    TITLE "0:"
    INDEX 01 01:15:41
  TRACK 51 AUDIO
    TITLE "4:cjc172_0067"
    INDEX 01 01:15:49
  TRACK 52 AUDIO
    TITLE "0:"
    INDEX 01 01:17:29
  TRACK 53 AUDIO
    TITLE "5:cjc172_0068"
    INDEX 01 01:17:34
  TRACK 54 AUDIO
    TITLE "0:"
    INDEX 01 01:23:37
  TRACK 55 AUDIO
    TITLE "3:cjc172_0069"
    INDEX 01 01:24:07
  TRACK 56 AUDIO
    TITLE "0:"
    INDEX 01 01:25:28
  TRACK 57 AUDIO
    TITLE "4:cjc172_0070"
    INDEX 01 01:25:36
  TRACK 58 AUDIO
    TITLE "0:"
    INDEX 01 01:26:45
  TRACK 59 AUDIO
    TITLE "5:cjc172_0071"
    INDEX 01 01:26:53
  TRACK 60 AUDIO
    TITLE "0:"
    INDEX 01 01:31:09
  TRACK 61 AUDIO
    TITLE "3:cjc172_0072"
    INDEX 01 01:31:56
  TRACK 62 AUDIO
    TITLE "0:"
    INDEX 01 01:33:02
  TRACK 63 AUDIO
    TITLE "4:cjc172_0073"
    INDEX 01 01:33:10
  TRACK 64 AUDIO
    TITLE "0:"
    INDEX 01 01:35:60
  TRACK 65 AUDIO
    TITLE "5:cjc172_0074"
    INDEX 01 01:35:68
  TRACK 66 AUDIO
    TITLE "0:"
    INDEX 01 01:42:23
  TRACK 67 AUDIO
    TITLE "3:cjc172_0075"
    INDEX 01 01:42:68
  TRACK 68 AUDIO
    TITLE "0:"
    INDEX 01 01:43:71
  TRACK 69 AUDIO
    TITLE "4:cjc172_0076"
    INDEX 01 01:44:16
  TRACK 70 AUDIO
    TITLE "0:"
    INDEX 01 01:48:53
  TRACK 71 AUDIO
    TITLE "5:cjc172_0077"
    INDEX 01 01:48:62
  TRACK 72 AUDIO
    TITLE "0:"
    INDEX 01 01:52:43
  TRACK 73 AUDIO
    TITLE "3:cjc172_0078"
    INDEX 01 01:53:13
  TRACK 74 AUDIO
    TITLE "0:"
    INDEX 01 01:54:18
  TRACK 75 AUDIO
    TITLE "4:cjc172_0079"
    INDEX 01 01:54:28
  TRACK 76 AUDIO
    TITLE "0:"
    INDEX 01 01:55:61
  TRACK 77 AUDIO
    TITLE "5:cjc172_0080"
    INDEX 01 01:55:66
  TRACK 78 AUDIO
    TITLE "0:"
    INDEX 01 02:01:67
  TRACK 79 AUDIO
    TITLE "3:cjc172_0081"
    INDEX 01 02:02:37
  TRACK 80 AUDIO
    TITLE "0:"
    INDEX 01 02:03:44
  TRACK 81 AUDIO
    TITLE "4:cjc172_0082"
    INDEX 01 02:03:56
  TRACK 82 AUDIO
    TITLE "0:"
    INDEX 01 02:05:55
  TRACK 83 AUDIO
    TITLE "5:cjc172_0083"
    INDEX 01 02:05:63
  TRACK 84 AUDIO
    TITLE "0:"
    INDEX 01 02:11:22
